<svg xmlns="http://www.w3.org/2000/svg" viewBox="0 0 744 768" preserveAspectRatio="xMidYMid meet" fill="none">
  <defs>
    <linearGradient id="buddhaGrad" x1="0" y1="0" x2="1" y2="1">
      <stop offset="0%" stop-color="#B993E5"/>
      <stop offset="55%" stop-color="#8B5CD6"/>
      <stop offset="100%" stop-color="#5B3EB3"/>
    </linearGradient>
  </defs>
  <g transform="translate(0,768) scale(0.1,-0.1)" fill="url(#buddhaGrad)" stroke="none">
    <path d="M3757 7250 c-21 -6 -63 -27 -94 -47 -156 -106 -135 -98 -205 -78
-135 39 -222 19 -321 -73 -49 -47 -49 -47 -141 -53 -151 -10 -242 -64 -301
-178 -34 -67 -60 -86 -157 -115 -143 -43 -201 -103 -249 -258 -11 -37 -44
-105 -71 -150 -81 -133 -91 -162 -88 -248 6 -188 -4 -254 -40 -258 -188 -23
-319 -167 -290 -321 11 -58 8 -64 -50 -95 -144 -78 -229 -280 -175 -411 22
-50 14 -66 -59 -124 -118 -92 -140 -191 -72 -324 45 -90 46 -85 -14 -159 -58
-72 -84 -140 -85 -223 0 -60 17 -104 86 -228 21 -38 21 -38 -17 -130 -57 -135
-56 -216 3 -339 42 -88 42 -88 20 -135 -17 -37 -22 -67 -22 -133 0 -107 21
-155 113 -252 50 -53 63 -73 59 -90 -3 -13 -12 -49 -21 -81 -49 -179 32 -313
254 -423 65 -33 65 -33 65 -136 0 -144 26 -187 178 -297 65 -47 65 -48 35
-110 -68 -141 -7 -277 164 -366 59 -31 66 -41 47 -76 -6 -11 -10 -60 -10 -108
0 -86 -1 -91 -38 -147 -88 -136 -271 -259 -466 -312 -182 -50 -668 -52 -905
-3 -25 5 -83 17 -130 26 -77 16 -136 32 -255 71 -60 19 -251 98 -325 134 -70
35 -170 80 -176 80 -2 0 -4 -8 -4 -18 0 -10 15 -24 37 -34 21 -9 94 -42 163
-72 69 -31 139 -62 155 -70 155 -71 430 -143 630 -166 44 -5 112 -14 150 -19
243 -36 683 13 843 92 123 61 283 196 350 297 35 52 37 60 38 138 2 72 5 88
28 120 44 65 37 76 -71 122 -163 69 -213 171 -148 300 36 71 33 103 -11 137
-189 145 -208 174 -209 323 0 105 0 105 -94 155 -204 109 -277 237 -217 379 9
21 16 60 16 87 0 46 -3 51 -71 121 -118 121 -135 187 -79 306 38 81 39 75 -17
181 -61 118 -63 173 -11 284 60 126 63 107 -36 291 -51 96 -29 197 66 302 69
76 73 110 24 184 -35 52 -60 134 -51 167 6 26 34 56 130 140 47 41 47 41 40
110 -25 226 -3 282 145 376 81 51 84 56 77 140 -11 150 52 224 215 252 44 7
58 -11 58 -72 0 -41 45 -268 78 -393 73 -275 182 -558 373 -968 52 -112 50
-124 -11 -69 -117 105 -299 134 -432 69 -336 -165 -401 -726 -131 -1138 60
-93 212 -257 316 -342 64 -52 72 -64 104 -142 54 -131 100 -270 117 -351 9
-41 21 -92 26 -114 6 -22 15 -152 20 -290 6 -137 15 -270 22 -295 21 -80 124
-161 204 -160 65 1 211 121 260 215 25 47 55 73 54 48 -1 -23 -41 -186 -58
-234 -48 -137 -319 -469 -382 -469 -34 0 -152 -58 -147 -73 4 -13 71 -14 151
0 102 17 333 269 423 463 74 157 110 356 76 420 -39 75 -72 56 -183 -111 -120
-177 -179 -215 -263 -166 -80 47 -80 50 -88 327 -11 379 -41 545 -140 773 -21
50 -39 92 -39 94 0 1 18 12 39 22 167 86 209 399 99 748 -120 387 -326 460
-392 140 -33 -159 -3 -365 99 -682 25 -78 4 -70 -111 42 -271 264 -369 640
-251 966 78 215 284 322 455 237 69 -35 211 -176 276 -275 103 -154 174 -411
267 -960 45 -266 153 -595 248 -755 247 -415 708 -718 1301 -855 80 -19 144
-42 210 -75 445 -224 1087 -233 1715 -25 206 69 446 176 705 317 300 164 280
151 280 181 0 15 -2 27 -5 27 -2 0 -83 -45 -180 -100 -639 -366 -1122 -519
-1635 -520 -266 0 -428 20 -637 79 -131 36 -133 43 -13 57 186 21 228 51 282
203 19 52 20 77 18 339 -1 210 1 287 10 297 9 11 33 15 79 15 81 0 256 32 313
58 55 24 72 45 72 88 0 65 -62 104 -205 128 -87 15 -84 5 -45 151 18 68 33
105 47 115 75 55 74 53 73 132 0 69 -19 144 -59 233 -18 41 -62 174 -86 265
-99 361 3 627 278 727 76 28 274 25 330 -4 101 -54 137 -141 153 -368 56 -806
50 -1233 -20 -1460 -75 -243 -158 -390 -303 -535 -137 -138 -294 -229 -471
-275 -68 -17 -86 -29 -69 -46 38 -38 297 55 442 158 283 201 456 518 516 944
28 195 9 989 -31 1293 -17 133 -40 204 -84 262 -31 41 -37 63 -20 80 6 6 13
45 15 87 3 43 12 91 21 109 27 52 7 286 -47 553 -66 321 -155 530 -324 754
-135 179 -354 422 -482 534 -100 88 -100 88 -105 151 -7 80 -54 180 -105 221
-37 29 -135 74 -164 75 -30 0 -48 35 -67 131 -11 52 -27 110 -36 127 -33 64
-120 108 -229 116 -34 2 -67 5 -74 5 -6 1 -44 28 -84 62 -119 99 -184 118
-304 88 -50 -13 -62 -8 -132 53 -91 79 -214 113 -316 88z m185 -98 c24 -10 68
-41 98 -67 78 -70 106 -79 179 -60 101 26 157 10 243 -71 59 -55 92 -69 183
-79 110 -11 195 -69 195 -133 0 -39 45 -180 65 -202 9 -10 46 -26 83 -36 71
-19 124 -47 157 -83 16 -19 54 -119 55 -145 0 -11 -221 0 -267 13 -17 5 -56
28 -87 51 -44 34 -69 44 -128 54 -40 8 -99 21 -131 31 -70 20 -124 15 -205
-21 -68 -30 -83 -30 -178 1 -97 32 -134 31 -225 -2 -65 -23 -87 -26 -179 -24
-91 2 -114 -1 -172 -23 -62 -24 -76 -25 -175 -20 -106 6 -110 6 -188 -27 -75
-31 -86 -33 -184 -31 -114 2 -147 -8 -271 -83 -54 -33 -63 -35 -144 -35 -97 0
-140 -16 -190 -70 -37 -40 -63 -50 -134 -50 -31 -1 -68 -7 -82 -15 -42 -24
-50 -19 -50 29 0 59 14 96 81 206 35 58 66 126 80 174 36 124 86 167 241 206
57 15 103 57 146 132 57 103 122 139 255 144 93 3 135 22 197 89 56 60 116 69
230 34 82 -25 117 -14 218 65 100 79 184 93 284 48z m653 -812 c32 -11 72 -20
89 -20 50 0 95 -17 133 -50 63 -56 111 -70 262 -77 136 -6 136 -6 226 -84 345
-297 631 -682 729 -981 49 -150 106 -401 106 -466 0 -20 4 -53 10 -72 16 -56
25 -194 12 -186 -6 3 -16 32 -22 64 -6 31 -15 71 -20 87 -4 17 -15 55 -23 85
-68 246 -96 315 -160 386 -24 27 -51 63 -60 81 -26 49 -63 73 -116 73 -54 0
-92 18 -127 60 -42 50 -73 60 -177 60 -91 0 -95 1 -138 33 -76 58 -83 60 -188
53 -105 -7 -104 -7 -207 62 -61 41 -95 41 -187 0 -100 -44 -169 -44 -254 0
-75 39 -98 39 -193 7 -97 -33 -143 -32 -222 5 -81 38 -103 38 -188 -5 -74 -37
-104 -42 -190 -30 -66 8 -80 -3 -129 -102 -41 -82 -72 -109 -156 -135 -101
-32 -125 -59 -125 -141 0 -108 -54 -181 -153 -208 -22 -6 -53 -24 -70 -40 -31
-31 -31 -43 -6 -106 12 -31 11 -35 -19 -75 -112 -150 -125 -187 -142 -388 -12
-137 -32 -220 -54 -220 -27 0 -78 70 -127 175 -284 606 -392 903 -475 1316
-27 135 -28 178 -5 314 18 106 71 167 134 151 39 -9 97 14 146 58 65 61 76 65
166 60 73 -5 84 -3 120 20 93 58 180 98 214 98 20 0 68 -1 106 -2 60 -3 81 2
150 30 84 36 72 34 270 27 24 -1 68 10 109 26 64 26 75 28 161 21 84 -6 99 -4
165 20 92 33 144 33 239 0 87 -30 123 -28 216 11 73 30 95 31 170 5z m-542
-962 c78 -40 140 -41 246 -4 93 32 88 32 169 -5 102 -48 135 -48 268 -4 113
39 113 39 166 2 90 -61 121 -70 223 -63 89 6 91 5 130 -24 80 -60 120 -73 201
-65 74 7 74 7 126 -40 63 -57 83 -65 154 -65 54 0 54 0 88 -52 19 -29 43 -59
55 -65 28 -18 46 -47 77 -128 33 -91 38 -105 104 -365 18 -69 43 -149 56 -179
19 -42 24 -71 24 -137 0 -92 -3 -96 -56 -70 -16 8 -66 20 -111 26 -209 30
-457 -100 -553 -289 -100 -199 -78 -429 79 -836 29 -74 52 -185 38 -185 -3 0
-21 9 -39 19 -146 83 -325 11 -264 -107 20 -38 103 -82 155 -82 49 0 48 4 14
-124 -31 -118 -36 -126 -75 -126 -82 0 -214 -52 -242 -94 -45 -70 -16 -132 72
-156 42 -11 42 -11 42 -250 0 -204 -3 -251 -19 -312 -11 -40 -22 -90 -26 -110
-8 -49 -23 -63 -93 -85 -135 -42 -433 -13 -677 65 -16 6 -57 18 -90 27 -254
73 -583 273 -777 471 -281 286 -377 532 -514 1314 -24 139 -84 377 -125 497
-47 136 -47 126 -5 151 63 38 91 121 101 311 9 145 24 196 84 274 72 93 83
120 79 185 -3 56 -3 56 51 76 97 35 163 127 178 248 8 59 10 64 43 79 161 74
172 84 224 188 28 53 28 53 84 48 61 -5 146 16 212 53 46 26 51 25 123 -12z
m-1613 -1650 c178 -195 242 -748 104 -894 -54 -58 -72 -37 -129 151 -117 383
-135 645 -53 750 26 33 43 32 78 -7z m3014 -941 c43 -29 24 -47 -51 -47 -35 0
-73 5 -84 10 -21 12 -26 45 -6 54 23 11 115 -1 141 -17z m-71 -454 c3 -5 8
-29 11 -55 7 -48 7 -48 -103 -48 -123 0 -141 4 -141 32 0 31 102 69 212 77 9
0 19 -2 21 -6z m235 -15 c63 -16 53 -40 -23 -55 -33 -7 -72 -15 -87 -19 -27
-6 -28 -5 -28 38 0 25 3 48 7 52 8 7 60 1 131 -16z"/>
  </g>
</svg>
